<?xml version="1.0" encoding="UTF-8" standalone="no"?>
<svg
   xmlns:dc="http://purl.org/dc/elements/1.1/"
   xmlns:cc="http://creativecommons.org/ns#"
   xmlns:rdf="http://www.w3.org/1999/02/22-rdf-syntax-ns#"
   xmlns:svg="http://www.w3.org/2000/svg"
   xmlns="http://www.w3.org/2000/svg"
   xmlns:sodipodi="http://sodipodi.sourceforge.net/DTD/sodipodi-0.dtd"
   xmlns:inkscape="http://www.inkscape.org/namespaces/inkscape"
   height="32px"
   version="1.1"
   viewBox="0 0 32 32"
   width="32px"
   id="svg11"
   sodipodi:docname="iconfinder_icon-22-eye_314859.svg"
   inkscape:version="0.92.4 5da689c313, 2019-01-14">
  <metadata
     id="metadata15">
    <rdf:RDF>
      <cc:Work
         rdf:about="">
        <dc:format>image/svg+xml</dc:format>
        <dc:type
           rdf:resource="http://purl.org/dc/dcmitype/StillImage" />
        <dc:title></dc:title>
      </cc:Work>
    </rdf:RDF>
  </metadata>
  <sodipodi:namedview
     pagecolor="#ffffff"
     bordercolor="#666666"
     borderopacity="1"
     objecttolerance="10"
     gridtolerance="10"
     guidetolerance="10"
     inkscape:pageopacity="0"
     inkscape:pageshadow="2"
     inkscape:window-width="1299"
     inkscape:window-height="713"
     id="namedview13"
     showgrid="false"
     inkscape:zoom="7.375"
     inkscape:cx="16"
     inkscape:cy="16"
     inkscape:window-x="67"
     inkscape:window-y="27"
     inkscape:window-maximized="1"
     inkscape:current-layer="svg11" />
  <desc
     id="desc4" />
  <defs
     id="defs6" />
  <g
     fill="none"
     fill-rule="evenodd"
     id="Page-1"
     stroke="none"
     stroke-width="1"
     style="fill:#000000">
    <g
       fill="#929292"
       id="icon-22-eye"
       style="fill:#000000">
      <path
         d="M16,9 C7,9 3,16 3,16 C3,16 7,23.000001 16,23 C25,22.999999 29,16 29,16 C29,16 25,9 16,9 L16,9 L16,9 Z M16,10 C8,10 4.19995117,16 4.19995117,16 C4.19995117,16 8,22.0000006 16,22 C24,21.999999 27.8000488,16 27.8000488,16 C27.8000488,16 24,10 16,10 L16,10 L16,10 Z M16,20 C18.2091391,20 20,18.2091391 20,16 C20,13.7908609 18.2091391,12 16,12 C13.7908609,12 12,13.7908609 12,16 C12,18.2091391 13.7908609,20 16,20 L16,20 L16,20 Z M16,19 C17.6568543,19 19,17.6568543 19,16 C19,14.3431457 17.6568543,13 16,13 C14.3431457,13 13,14.3431457 13,16 C13,17.6568543 14.3431457,19 16,19 L16,19 L16,19 Z M16,17 C16.5522848,17 17,16.5522848 17,16 C17,15.4477152 16.5522848,15 16,15 C15.4477152,15 15,15.4477152 15,16 C15,16.5522848 15.4477152,17 16,17 L16,17 L16,17 Z"
         id="eye"
         style="fill:#000000" />
    </g>
  </g>
</svg>
